<svg width="22" height="29" viewBox="0 0 22 29" fill="none" xmlns="http://www.w3.org/2000/svg">
<path d="M1.55273 28V1.5H15.8722L21.3038 7V28H1.55273Z" stroke="#8B6CBC" stroke-width="1.2"/>
<path d="M15.3789 1V7H21.3042" stroke="#8B6CBC" stroke-width="1.2"/>
<path d="M6.92614 22H5.37926V17.6364H6.93892C7.37784 17.6364 7.75568 17.7237 8.07244 17.8984C8.3892 18.0717 8.63281 18.321 8.80327 18.6463C8.97514 18.9716 9.06108 19.3608 9.06108 19.8139C9.06108 20.2685 8.97514 20.6591 8.80327 20.9858C8.63281 21.3125 8.38778 21.5632 8.06818 21.7379C7.75 21.9126 7.36932 22 6.92614 22ZM6.30185 21.2095H6.88778C7.16051 21.2095 7.38991 21.1612 7.57599 21.0646C7.76349 20.9666 7.90412 20.8153 7.99787 20.6108C8.09304 20.4048 8.14062 20.1392 8.14062 19.8139C8.14062 19.4915 8.09304 19.228 7.99787 19.0234C7.90412 18.8189 7.7642 18.6683 7.57812 18.5717C7.39205 18.4751 7.16264 18.4268 6.88991 18.4268H6.30185V21.2095ZM10.5627 22L9.3141 17.6364H10.3219L11.0442 20.6683H11.0804L11.8773 17.6364H12.7402L13.535 20.6747H13.5733L14.2956 17.6364H15.3034L14.0549 22H13.1557L12.3248 19.147H12.2907L11.4618 22H10.5627ZM15.7972 22V17.6364H18.6864V18.397H16.7198V19.4368H18.4947V20.1974H16.7198V22H15.7972Z" fill="#8B6CBC"/>
</svg>
