<svg width="22" height="29" viewBox="0 0 22 29" fill="none" xmlns="http://www.w3.org/2000/svg">
<path d="M1.55273 28V1.5H15.8722L21.3038 7V28H1.55273Z" stroke="#82C371" stroke-width="1.2"/>
<path d="M15.3789 1V7H21.3042" stroke="#82C371" stroke-width="1.2"/>
<path d="M7.12642 17.6364H8.03835V20.679C8.03835 20.9602 7.97514 21.2045 7.84872 21.4119C7.72372 21.6193 7.54972 21.7791 7.3267 21.8913C7.10369 22.0036 6.84446 22.0597 6.54901 22.0597C6.28622 22.0597 6.04759 22.0135 5.8331 21.9212C5.62003 21.8274 5.45099 21.6854 5.32599 21.495C5.20099 21.3033 5.1392 21.0625 5.14062 20.7727H6.05895C6.06179 20.8878 6.08523 20.9865 6.12926 21.0689C6.17472 21.1499 6.23651 21.2124 6.31463 21.2564C6.39418 21.299 6.48793 21.3203 6.59588 21.3203C6.70952 21.3203 6.8054 21.2962 6.88352 21.2479C6.96307 21.1982 7.02344 21.1257 7.06463 21.0305C7.10582 20.9354 7.12642 20.8182 7.12642 20.679V17.6364ZM8.80114 22V17.6364H10.5227C10.8537 17.6364 11.1357 17.6996 11.3686 17.826C11.6016 17.951 11.7791 18.125 11.9013 18.348C12.0249 18.5696 12.0866 18.8253 12.0866 19.1151C12.0866 19.4048 12.0241 19.6605 11.8991 19.8821C11.7741 20.1037 11.593 20.2763 11.3558 20.3999C11.12 20.5234 10.8345 20.5852 10.4993 20.5852H9.40199V19.8459H10.3501C10.5277 19.8459 10.674 19.8153 10.7891 19.7543C10.9055 19.6918 10.9922 19.6058 11.049 19.4964C11.1072 19.3857 11.1364 19.2585 11.1364 19.1151C11.1364 18.9702 11.1072 18.8437 11.049 18.7358C10.9922 18.6264 10.9055 18.5419 10.7891 18.4822C10.6726 18.4212 10.5249 18.3906 10.3459 18.3906H9.72372V22H8.80114ZM15.5794 19.0469C15.5495 18.9432 15.5076 18.8516 15.4537 18.772C15.3997 18.6911 15.3336 18.6229 15.2555 18.5675C15.1788 18.5107 15.0907 18.4673 14.9913 18.4375C14.8933 18.4077 14.7846 18.3928 14.6653 18.3928C14.4423 18.3928 14.2463 18.4482 14.0772 18.5589C13.9096 18.6697 13.7789 18.831 13.6852 19.0426C13.5914 19.2528 13.5446 19.5099 13.5446 19.8139C13.5446 20.1179 13.5907 20.3764 13.6831 20.5895C13.7754 20.8026 13.9061 20.9652 14.0751 21.0774C14.2441 21.1882 14.4437 21.2436 14.6738 21.2436C14.8826 21.2436 15.0609 21.2067 15.2086 21.1328C15.3578 21.0575 15.4714 20.9517 15.5495 20.8153C15.6291 20.679 15.6689 20.5178 15.6689 20.3317L15.8564 20.3594H14.7314V19.6648H16.5574V20.2145C16.5574 20.598 16.4764 20.9276 16.3145 21.2031C16.1525 21.4773 15.9295 21.6889 15.6454 21.8381C15.3613 21.9858 15.036 22.0597 14.6696 22.0597C14.2605 22.0597 13.9011 21.9695 13.5914 21.7891C13.2818 21.6072 13.0403 21.3494 12.867 21.0156C12.6951 20.6804 12.6092 20.2827 12.6092 19.8224C12.6092 19.4687 12.6603 19.1534 12.7626 18.8764C12.8663 18.598 13.0112 18.3622 13.1973 18.169C13.3833 17.9759 13.6 17.8288 13.8471 17.728C14.0943 17.6271 14.362 17.5767 14.6504 17.5767C14.8975 17.5767 15.1277 17.6129 15.3407 17.6854C15.5538 17.7564 15.7427 17.8572 15.9075 17.9879C16.0737 18.1186 16.2093 18.2741 16.3145 18.4545C16.4196 18.6335 16.487 18.831 16.5169 19.0469H15.5794Z" fill="#82C471"/>
</svg>
