<svg width="22" height="29" viewBox="0 0 22 29" fill="none" xmlns="http://www.w3.org/2000/svg">
<path d="M1.55273 28V1.5H15.8722L21.3038 7V28H1.55273Z" stroke="#CE6F6F" stroke-width="1.2"/>
<path d="M15.3789 1V7H21.3042" stroke="#CE6F6F" stroke-width="1.2"/>
<path d="M5.37926 22V17.6364H7.10085C7.43182 17.6364 7.71378 17.6996 7.94673 17.826C8.17969 17.951 8.35724 18.125 8.4794 18.348C8.60298 18.5696 8.66477 18.8253 8.66477 19.1151C8.66477 19.4048 8.60227 19.6605 8.47727 19.8821C8.35227 20.1037 8.17116 20.2763 7.93395 20.3999C7.69815 20.5234 7.41264 20.5852 7.07741 20.5852H5.98011V19.8459H6.92827C7.10582 19.8459 7.25213 19.8153 7.36719 19.7543C7.48366 19.6918 7.57031 19.6058 7.62713 19.4964C7.68537 19.3857 7.71449 19.2585 7.71449 19.1151C7.71449 18.9702 7.68537 18.8437 7.62713 18.7358C7.57031 18.6264 7.48366 18.5419 7.36719 18.4822C7.25071 18.4212 7.10298 18.3906 6.92401 18.3906H6.30185V22H5.37926ZM10.8109 22H9.26403V17.6364H10.8237C11.2626 17.6364 11.6404 17.7237 11.9572 17.8984C12.274 18.0717 12.5176 18.321 12.688 18.6463C12.8599 18.9716 12.9458 19.3608 12.9458 19.8139C12.9458 20.2685 12.8599 20.6591 12.688 20.9858C12.5176 21.3125 12.2725 21.5632 11.9529 21.7379C11.6348 21.9126 11.2541 22 10.8109 22ZM10.1866 21.2095H10.7725C11.0453 21.2095 11.2747 21.1612 11.4608 21.0646C11.6483 20.9666 11.7889 20.8153 11.8826 20.6108C11.9778 20.4048 12.0254 20.1392 12.0254 19.8139C12.0254 19.4915 11.9778 19.228 11.8826 19.0234C11.7889 18.8189 11.649 18.6683 11.4629 18.5717C11.2768 18.4751 11.0474 18.4268 10.7747 18.4268H10.1866V21.2095ZM13.6293 22V17.6364H16.5185V18.397H14.5518V19.4368H16.3267V20.1974H14.5518V22H13.6293Z" fill="#CE6F6F"/>
</svg>
